<?xml version="1.0" standalone="no"?><!DOCTYPE svg PUBLIC "-//W3C//DTD SVG 1.1//EN" "http://www.w3.org/Graphics/SVG/1.1/DTD/svg11.dtd"><svg t="1719995126819" class="icon" viewBox="0 0 1024 1024" version="1.1" xmlns="http://www.w3.org/2000/svg" p-id="7355" xmlns:xlink="http://www.w3.org/1999/xlink" width="200" height="200"><path d="M509.72 33.22c-265.1 0-480 214.9-480 480s214.9 480 480 480 480-214.9 480-480-214.91-480-480-480z m0 880c-54.04 0-106.41-10.57-155.67-31.4-47.62-20.14-90.41-48.99-127.17-85.76-36.76-36.76-65.61-79.55-85.76-127.17-20.84-49.26-31.4-101.64-31.4-155.67 0-54.04 10.57-106.41 31.4-155.67 20.14-47.62 48.99-90.41 85.76-127.17a402.561 402.561 0 0 1 53.31-44.82l398.54 690.3c-4.41 2.06-8.84 4.06-13.34 5.96-49.26 20.84-101.64 31.4-155.67 31.4z m282.84-117.16a403.275 403.275 0 0 1-45.08 38.88L349.96 146.41c1.36-0.59 2.72-1.21 4.09-1.79 49.26-20.84 101.64-31.4 155.67-31.4 54.03 0 106.41 10.57 155.67 31.4 47.62 20.14 90.41 48.99 127.17 85.76 36.76 36.76 65.61 79.55 85.76 127.17 20.84 49.26 31.4 101.64 31.4 155.67 0 54.03-10.57 106.41-31.4 155.67-20.15 47.63-49 90.41-85.76 127.17z" fill="#7F7F7F" p-id="7356"></path></svg>