<?xml version="1.0" standalone="no"?><!DOCTYPE svg PUBLIC "-//W3C//DTD SVG 1.1//EN" "http://www.w3.org/Graphics/SVG/1.1/DTD/svg11.dtd"><svg t="1716717270139" class="icon" viewBox="0 0 1024 1024" version="1.1" xmlns="http://www.w3.org/2000/svg" p-id="2358" xmlns:xlink="http://www.w3.org/1999/xlink" width="64" height="64"><path d="M558.464 547.904h73.472a25.6 25.6 0 0 0 18.368-43.456L540.288 391.552a25.6 25.6 0 0 0-36.672 0L393.6 504.448a25.6 25.6 0 0 0 18.368 43.52h73.408v99.456a36.544 36.544 0 0 0 73.088 0V547.904z m-319.552 330.688C106.24 874.432 0 766.912 0 634.88c0-124.288 94.208-226.88 216-241.92C222.144 236.8 352.32 112 512 112s289.92 124.8 296 281.024C929.792 408 1024 510.592 1024 634.88c0 131.648-105.6 238.912-237.696 243.648v0.192H238.912v-0.128z" fill="#000000" p-id="2359"></path></svg>